<svg width="1000" height="440" viewBox="0 0 1000 440" fill="none" xmlns="http://www.w3.org/2000/svg">
<g clip-path="url(#clip0_2_19)">
<rect width="1000" height="440" fill="white"/>
<g clip-path="url(#clip1_2_19)">
<path d="M1060.85 195.956C1059.91 119.865 1139.61 23.1133 1051.47 -11.1529C963.341 -45.419 704.883 -9.64114 532.056 -9.64114C359.23 -9.64114 68.581 -38.1123 14.5141 -11.1529C-39.5528 15.8065 128.586 118.101 207.655 152.115C286.724 186.129 401.733 179.075 488.928 192.932C576.122 206.79 670.505 205.782 730.822 235.261C791.14 264.74 802.078 334.784 850.832 369.806C899.586 404.828 988.969 432.795 1023.35 445.393C1057.72 457.991 1050.85 486.966 1057.1 445.393C1063.35 403.82 1061.79 272.047 1060.85 195.956C1059.91 119.865 1139.61 23.1133 1051.47 -11.1529Z" fill="#FBFCFC"/>
<g clip-path="url(#clip2_2_19)">
<path d="M1038.92 134.727C1038.15 79.6262 1104.08 9.56479 1031.16 -15.2486C958.244 -40.0621 744.396 -14.1539 601.4 -14.1539C458.403 -14.1539 217.921 -34.771 173.186 -15.2486C128.452 4.27369 267.569 78.3491 332.991 102.98C398.412 127.611 493.571 122.502 565.715 132.537C637.86 142.572 715.952 141.842 765.858 163.189C815.765 184.536 824.815 235.257 865.154 260.618C905.493 285.979 979.448 306.231 1007.89 315.354C1036.34 324.476 1030.65 345.458 1035.82 315.354C1040.99 285.249 1039.7 189.827 1038.92 134.727C1038.15 79.6262 1104.08 9.56479 1031.16 -15.2486Z" fill="#F0F1F1"/>
<g clip-path="url(#clip3_2_19)">
<path d="M420.589 -12.8531C381.048 -13.7273 321.073 -21.4196 307.538 -12.8531C294.004 -4.28671 322.134 23.6853 339.384 38.5455C356.633 53.4056 382.11 68.965 411.036 76.3077C439.962 83.6504 483.749 85.2238 512.941 82.6014C542.132 79.979 555.667 67.042 586.185 60.5734C616.704 54.1049 661.552 42.3916 696.052 43.7902C730.551 45.1888 765.05 53.5804 793.18 68.965C821.31 84.3497 839.621 121.762 864.832 136.098C890.043 150.434 911.273 150.434 944.445 154.979C977.618 159.524 1033.35 163.895 1063.87 163.371C1094.38 162.846 1110.84 164.594 1127.56 151.832C1144.28 139.07 1158.07 107.776 1164.18 86.7972C1170.28 65.8182 1166.04 41.1678 1164.18 25.958C1162.32 10.7483 1172.94 2.007 1153.03 -4.46153C1133.13 -10.9301 1078.46 -11.8042 1044.76 -12.8531C1011.06 -13.9021 986.906 -11.2797 950.814 -10.7552C914.723 -10.2308 859.79 -9.70629 828.21 -9.70629C796.63 -9.70629 786.015 -10.7552 761.335 -10.7552C736.654 -10.7552 716.22 -10.2308 680.129 -9.70629C644.038 -9.18181 588.043 -7.08391 544.786 -7.60838C501.53 -8.13286 460.131 -11.979 420.589 -12.8531C381.048 -13.7273 321.073 -21.4196 307.538 -12.8531Z" fill="#E7E8EA"/>
</g>
</g>
</g>
</g>
<defs>
<clipPath id="clip0_2_19">
<rect width="1000" height="440" fill="white"/>
</clipPath>
<clipPath id="clip1_2_19">
<rect width="1993" height="1043" fill="white" transform="translate(-18 -16)"/>
</clipPath>
<clipPath id="clip2_2_19">
<rect width="1692" height="577" fill="white" transform="translate(-682 -16)"/>
</clipPath>
<clipPath id="clip3_2_19">
<rect width="910.777" height="600" fill="white" transform="translate(258.974 -16)"/>
</clipPath>
</defs>
</svg>
