<svg xmlns="http://www.w3.org/2000/svg" width="60" height="90" fill="none" xmlns:v="https://vecta.io/nano"><g clip-path="url(#A)"><path d="M49.868 8.104C45.865 4.235 40.764 1.6 35.211.532a29.55 29.55 0 0 0-16.539 1.573C13.441 4.199 8.97 7.745 5.825 12.295S1 22.193 1 27.665s1.679 10.821 4.825 15.37 7.616 8.095 12.847 10.189a29.55 29.55 0 0 0 16.539 1.573c5.553-1.068 10.653-3.703 14.656-7.573 5.367-5.188 8.382-12.224 8.382-19.56s-3.015-14.372-8.382-19.56zM8.466 18.303c1.442-3.092 3.58-5.834 6.256-8.028s5.826-3.783 9.218-4.652a24.41 24.41 0 0 1 10.392-.375c3.45.623 6.712 1.981 9.551 3.976-7.026-.641-15.822 2.829-22.952 9.708-2.691 2.597-4.971 5.563-6.766 8.802-2.441-2.807-4.369-5.997-5.699-9.431zm15.783 32.091c-5.433-1.407-10.169-4.64-13.357-9.118s-4.62-9.908-4.039-15.315c2.953 6.2 10.409 11.833 20.194 14.348a39.18 39.18 0 0 0 11.216 1.258 32.1 32.1 0 0 1-5.556 9.469c-2.838.277-5.704.052-8.457-.666v.025zM42.061 24.1c-.964-3.546-2.464-6.936-4.45-10.06a34.56 34.56 0 0 1 11.255-.075c1.669 2.233 2.9 4.744 3.63 7.407 1.458 5.252.931 10.833-1.488 15.743s-6.569 8.824-11.706 11.042c4.06-5.545 5.361-14.637 2.758-24.056z" fill="#a9aeb3"/><g fill="#000"><path d="M9.881 71.16c-.683 0-1.285-.165-1.808-.496-.512-.331-.912-.8-1.2-1.408-.288-.619-.432-1.344-.432-2.176 0-.843.144-1.563.432-2.16.288-.608.688-1.077 1.2-1.408.523-.331 1.125-.496 1.808-.496.555 0 1.056.123 1.504.368s.784.571 1.008.976v-4.64h2V71h-1.952v-1.296c-.213.448-.549.805-1.008 1.072a3.13 3.13 0 0 1-1.552.384zm.56-1.52c.597 0 1.077-.213 1.44-.64.363-.437.544-1.077.544-1.92 0-.853-.181-1.488-.544-1.904-.363-.427-.843-.64-1.44-.64s-1.077.213-1.44.64c-.363.416-.544 1.051-.544 1.904 0 .843.181 1.483.544 1.92.363.427.843.64 1.44.64zm5.898-8.144v-1.952h2.24v1.952h-2.24zM16.466 71v-7.824h2V71h-2zm7.726 3.04a7.92 7.92 0 0 1-2.048-.256 4.95 4.95 0 0 1-1.664-.752l.576-1.392a4.88 4.88 0 0 0 1.44.656c.512.149 1.024.224 1.536.224 1.429 0 2.144-.688 2.144-2.064v-1.072c-.224.437-.571.784-1.04 1.04-.459.256-.971.384-1.536.384-.704 0-1.317-.16-1.84-.48-.523-.331-.928-.789-1.216-1.376s-.432-1.269-.432-2.048.144-1.456.432-2.032a3.21 3.21 0 0 1 1.216-1.36c.523-.331 1.136-.496 1.84-.496.587 0 1.109.133 1.568.4.459.256.795.603 1.008 1.04v-1.28h1.952v7.04c0 1.269-.336 2.224-1.008 2.864s-1.648.96-2.928.96zm-.048-4.752c.619 0 1.109-.213 1.472-.64s.544-1.008.544-1.744-.181-1.312-.544-1.728c-.363-.427-.853-.64-1.472-.64s-1.109.213-1.472.64c-.363.416-.544.992-.544 1.728s.181 1.317.544 1.744.853.64 1.472.64zm5.928-7.792v-1.952h2.24v1.952h-2.24zM30.201 71v-7.824h2V71h-2zm7.662.16c-2.069 0-3.104-1.024-3.104-3.072V64.68h-1.504v-1.504h1.504V60.84h2v2.336h2.368v1.504h-2.368v3.296c0 .512.112.896.336 1.152s.587.384 1.088.384c.149 0 .304-.016.464-.048l.496-.128.304 1.472a2.68 2.68 0 0 1-.736.256 3.9 3.9 0 0 1-.848.096zm5.133 0c-.565 0-1.072-.107-1.52-.32a2.76 2.76 0 0 1-1.04-.896 2.25 2.25 0 0 1-.368-1.264c0-.576.149-1.029.448-1.36.299-.341.784-.587 1.456-.736s1.573-.224 2.704-.224h.56v-.336c0-.533-.117-.917-.352-1.152s-.629-.352-1.184-.352a4.63 4.63 0 0 0-1.344.208 5.82 5.82 0 0 0-1.392.608l-.576-1.36c.277-.192.603-.357.976-.496a6.45 6.45 0 0 1 1.2-.336c.427-.085.827-.128 1.2-.128 1.141 0 1.989.267 2.544.8.555.523.832 1.339.832 2.448V71h-1.872v-1.248a2.23 2.23 0 0 1-.864 1.04c-.395.245-.864.368-1.408.368zm.416-1.376a1.7 1.7 0 0 0 1.296-.544c.352-.363.528-.821.528-1.376v-.352h-.544c-1.003 0-1.701.08-2.096.24-.384.149-.576.427-.576.832 0 .352.123.64.368.864s.587.336 1.024.336zm8.478 1.376c-.928 0-1.616-.251-2.064-.752-.437-.512-.656-1.259-.656-2.24V59.72h2v8.352c0 .96.405 1.44 1.216 1.44l.352-.016c.117-.011.229-.032.336-.064l-.032 1.584c-.384.096-.768.144-1.152.144zM11.088 87v-7.776h1.264v1.392c.416-.939 1.269-1.456 2.56-1.552l.464-.048.096 1.12-.816.096c-.736.064-1.296.299-1.68.704-.384.395-.576.939-.576 1.632V87h-1.312zm8.873.144c-.757 0-1.413-.165-1.968-.496s-.987-.795-1.296-1.392c-.299-.608-.448-1.323-.448-2.144s.149-1.531.448-2.128a3.38 3.38 0 0 1 1.296-1.408c.555-.331 1.211-.496 1.968-.496.747 0 1.397.165 1.952.496a3.25 3.25 0 0 1 1.296 1.408c.309.597.464 1.307.464 2.128s-.155 1.536-.464 2.144a3.27 3.27 0 0 1-1.296 1.392c-.555.331-1.205.496-1.952.496zm0-1.04c.725 0 1.307-.256 1.744-.768.437-.523.656-1.264.656-2.224 0-.971-.219-1.712-.656-2.224s-1.019-.768-1.744-.768c-.736 0-1.323.256-1.76.768-.427.512-.64 1.253-.64 2.224 0 .96.213 1.701.64 2.224.437.512 1.024.768 1.76.768zm9.595 1.04c-.619 0-1.163-.139-1.632-.416a2.67 2.67 0 0 1-1.04-1.136V87H25.62V75.72h1.296v4.848c.224-.459.571-.821 1.04-1.088s1.003-.4 1.6-.4c.693 0 1.296.165 1.808.496.523.32.923.784 1.2 1.392.288.597.432 1.312.432 2.144 0 .821-.144 1.536-.432 2.144-.277.597-.677 1.061-1.2 1.392-.512.331-1.115.496-1.808.496zm-.272-1.04c.725 0 1.307-.256 1.744-.768.437-.523.656-1.264.656-2.224 0-.971-.219-1.712-.656-2.224s-1.019-.768-1.744-.768-1.307.256-1.744.768-.656 1.253-.656 2.224c0 .96.219 1.701.656 2.224.437.512 1.019.768 1.744.768zm5.664.896V75.72h1.296v6.96h.032l3.6-3.456h1.648l-3.904 3.744L41.859 87h-1.648l-3.936-3.648h-.032V87h-1.296zm11.301.144c-1.227 0-2.197-.357-2.912-1.072-.715-.725-1.072-1.707-1.072-2.944 0-.8.16-1.504.48-2.112.32-.619.757-1.093 1.312-1.424.565-.341 1.216-.512 1.952-.512 1.056 0 1.883.341 2.48 1.024.597.672.896 1.6.896 2.784v.496h-5.856c.043.885.299 1.563.768 2.032.469.459 1.12.688 1.952.688a4.32 4.32 0 0 0 1.344-.208 3.76 3.76 0 0 0 1.216-.72l.448.912c-.352.331-.8.592-1.344.784a5.23 5.23 0 0 1-1.664.272zm-.208-7.104c-.736 0-1.317.229-1.744.688s-.677 1.061-.752 1.808h4.72c-.032-.789-.24-1.403-.624-1.84-.373-.437-.907-.656-1.6-.656z"/></g></g><defs><clipPath id="A"><path fill="#fff" d="M0 0h60v90H0z"/></clipPath></defs></svg>